<svg width="421" height="322" viewBox="0 0 421 322" fill="none" xmlns="http://www.w3.org/2000/svg">
<g clip-path="url(#clip0)">
<path d="M146.437 4.21221L124.813 160.261L399.37 198.314L420.993 42.2657L146.437 4.21221Z" fill="url(#paint0_linear)"/>
<path d="M418.158 44.044L147.747 6.56508L126.715 158.352L397.125 195.831L418.158 44.044Z" fill="white"/>
<g opacity="0.3">
<path opacity="0.3" d="M411.523 49.6351L152.717 13.7645L133.53 152.235L392.336 188.105L411.523 49.6351Z" fill="#63B5FF"/>
<g opacity="0.3">
<g opacity="0.3">
<path d="M136.206 11.4806L241.251 185.631L305.152 194.489L416.721 129.618L328.65 13.1862L172.554 176.106L83.3068 142.568L242.765 2.36916L372.781 203.863" fill="#63B5FF"/>
<path d="M136.206 11.4806L241.251 185.631L305.152 194.489L416.721 129.618L328.65 13.1862L172.554 176.106L83.3068 142.568L242.765 2.36916L372.781 203.863" stroke="white" stroke-width="5" stroke-miterlimit="10"/>
</g>
</g>
</g>
<path d="M255.967 27.7663C254.115 41.1262 226.637 69.0662 226.637 69.0662C226.637 69.0662 205.86 34.4373 207.713 21.0774C208.118 17.8805 209.154 14.7959 210.76 12.0022C212.367 9.2085 214.511 6.76119 217.069 4.802C219.627 2.84281 222.549 1.41067 225.664 0.5885C228.78 -0.233667 232.028 -0.429523 235.219 0.0122746C238.411 0.454072 241.484 1.52474 244.259 3.16229C247.034 4.79984 249.457 6.97173 251.387 9.5522C253.317 12.1327 254.716 15.0704 255.503 18.1954C256.29 21.3204 256.449 24.5704 255.972 27.7574L255.967 27.7663Z" fill="url(#paint1_linear)"/>
<path d="M254.382 28.1894C252.645 40.7209 226.868 66.933 226.868 66.933C226.868 66.933 207.379 34.4507 209.115 21.9191C209.947 15.9162 213.129 10.4898 217.962 6.83346C222.794 3.17715 228.881 1.59052 234.883 2.4226C240.885 3.25467 246.311 6.4373 249.967 11.2703C253.623 16.1034 255.21 22.1909 254.378 28.1938L254.382 28.1894Z" fill="#63B5FF"/>
<path d="M243.314 24.8048C244.182 18.5389 239.819 12.7571 233.569 11.8908C227.318 11.0244 221.547 15.4017 220.679 21.6676C219.811 27.9335 224.174 33.7153 230.425 34.5817C236.675 35.448 242.446 31.0707 243.314 24.8048Z" fill="white"/>
<path d="M0 95.0823V106.532V322H327.194V106.532V95.0823H0Z" fill="url(#paint2_linear)"/>
<path d="M323.725 109.199H4.8535V317.965H323.725V109.199Z" fill="white"/>
<path d="M323.725 99.2684H4.8535V114.628H323.725V99.2684Z" fill="#F5F5F5"/>
<path d="M16.9873 110.442C19.0432 110.442 20.7098 108.775 20.7098 106.719C20.7098 104.663 19.0432 102.996 16.9873 102.996C14.9314 102.996 13.2648 104.663 13.2648 106.719C13.2648 108.775 14.9314 110.442 16.9873 110.442Z" fill="#FF5252"/>
<path d="M27.2287 110.442C29.2845 110.442 30.9512 108.775 30.9512 106.719C30.9512 104.663 29.2845 102.996 27.2287 102.996C25.1728 102.996 23.5061 104.663 23.5061 106.719C23.5061 108.775 25.1728 110.442 27.2287 110.442Z" fill="#FFFF00"/>
<path d="M37.4656 110.442C39.5214 110.442 41.1881 108.775 41.1881 106.719C41.1881 104.663 39.5214 102.996 37.4656 102.996C35.4097 102.996 33.743 104.663 33.743 106.719C33.743 108.775 35.4097 110.442 37.4656 110.442Z" fill="#69F0AE"/>
<path opacity="0.5" d="M193.032 165.017H134.389V171.3H193.032V165.017Z" fill="#63B5FF"/>
<path d="M156.265 192.017H92.0386V198.301H156.265V192.017Z" fill="#E0E0E0"/>
<path d="M171.16 198.301H235.387V192.017H171.16V198.301Z" fill="#E0E0E0"/>
<path d="M235.151 205.515H91.8027V211.799H235.151V205.515Z" fill="#E0E0E0"/>
<path d="M235.151 219.013H91.8027V225.297H235.151V219.013Z" fill="#E0E0E0"/>
<path d="M193.268 247.875H133.694V259.511H193.268V247.875Z" fill="url(#paint3_linear)"/>
<path d="M192.8 248.93H134.157V258.451H192.8V248.93Z" fill="#63B5FF"/>
</g>
<defs>
<linearGradient id="paint0_linear" x1="262.429" y1="179.334" x2="284.057" y2="23.2909" gradientUnits="userSpaceOnUse">
<stop stop-color="#808080" stop-opacity="0.25"/>
<stop offset="0.54" stop-color="#808080" stop-opacity="0.12"/>
<stop offset="1" stop-color="#808080" stop-opacity="0.1"/>
</linearGradient>
<linearGradient id="paint1_linear" x1="28204.4" y1="20548.5" x2="29685.9" y2="9859.73" gradientUnits="userSpaceOnUse">
<stop stop-color="#808080" stop-opacity="0.25"/>
<stop offset="0.54" stop-color="#808080" stop-opacity="0.12"/>
<stop offset="1" stop-color="#808080" stop-opacity="0.1"/>
</linearGradient>
<linearGradient id="paint2_linear" x1="120211" y1="164170" x2="120211" y2="48544.3" gradientUnits="userSpaceOnUse">
<stop stop-color="#808080" stop-opacity="0.25"/>
<stop offset="0.54" stop-color="#808080" stop-opacity="0.12"/>
<stop offset="1" stop-color="#808080" stop-opacity="0.1"/>
</linearGradient>
<linearGradient id="paint3_linear" x1="22005.5" y1="7028.91" x2="22005.5" y2="6724.84" gradientUnits="userSpaceOnUse">
<stop stop-color="#808080" stop-opacity="0.25"/>
<stop offset="0.54" stop-color="#808080" stop-opacity="0.12"/>
<stop offset="1" stop-color="#808080" stop-opacity="0.1"/>
</linearGradient>
<clipPath id="clip0">
<rect width="421" height="322" fill="white"/>
</clipPath>
</defs>
</svg>
